PathFileType	4	(X/Y/Z)	C:\Users\JDoe\SprintMotion.trc
DataRate	CameraRate	NumFrames	NumMarkers	Units	OrigDataRate	OrigDataStartFrame	OrigNumFrames
250.00	250.00	       6	59	mm	250.00	690	       788
Frame#	Time	C7			T8			T12			R.AA			R.AC			R.Scapula			R.HeadHum			R.Hum			R.Epi.Med			R.Epi.Lat			R.Ulna			R.Wrist.Uln			R.Wrist.Rad			R.Hand			L.AA			L.AC			L.Scapula			L.HeadHum			L.Hum			L.Epi.Med			L.Epi.Lat			L.Ulna			L.Wrist.Uln			L.Wrist.Rad			L.Hand			Tete.H			Tete.D			Tete.G			Sacral			R.EIAS			LEIAS			R.Crete			L.Crete			R.GT			R.Hip			R.Knee.Med			R.Knee.Lat			R.TTA			R.Fibula			R.Ankle.Med			R.Ankle.Lat			R.Calca			R.Foot.Med			R.Foot.Lat			L.GT			L.Hip			L.Knee.Med			L.Knee.Lat			L.TTA			L.Fibula			L.Ankle.Med			L.Ankle.Lat			L.Calca			L.Foot.Med			L.Foot.Lat			StartG			StartD			StartAvt			StartArr			
		X1	Y1	Z1	X2	Y2	Z2	X3	Y3	Z3	X4	Y4	Z4	X5	Y5	Z5	X6	Y6	Z6	X7	Y7	Z7	X8	Y8	Z8	X9	Y9	Z9	X10	Y10	Z10	X11	Y11	Z11	X12	Y12	Z12	X13	Y13	Z13	X14	Y14	Z14	X15	Y15	Z15	X16	Y16	Z16	X17	Y17	Z17	X18	Y18	Z18	X19	Y19	Z19	X20	Y20	Z20	X21	Y21	Z21	X22	Y22	Z22	X23	Y23	Z23	X24	Y24	Z24	X25	Y25	Z25	X26	Y26	Z26	X27	Y27	Z27	X28	Y28	Z28	X29	Y29	Z29	X30	Y30	Z30	X31	Y31	Z31	X32	Y32	Z32	X33	Y33	Z33	X34	Y34	Z34	X35	Y35	Z35	X36	Y36	Z36	X37	Y37	Z37	X38	Y38	Z38	X39	Y39	Z39	X40	Y40	Z40	X41	Y41	Z41	X42	Y42	Z42	X43	Y43	Z43	X44	Y44	Z44	X45	Y45	Z45	X46	Y46	Z46	X47	Y47	Z47	X48	Y48	Z48	X49	Y49	Z49	X50	Y50	Z50	X51	Y51	Z51	X52	Y52	Z52	X53	Y53	Z53	X54	Y54	Z54	X55	Y55	Z55	X56	Y56	Z56	X57	Y57	Z57	X58	Y58	Z58	X59	Y59	Z59	

690	2.756	1221.68445	-37.37699	1101.17651	1000.14819	29.97781	1068.55957	884.55414	39.83503	980.72455	1142.96899	-115.66292	1112.76563	1188.78955	-133.43681	974.25830	1181.62402	-171.05591	1052.76428	1109.93469	-258.67188	1024.85706	962.35913	-288.32947	981.00562	839.67151	-227.22713	947.83679	909.90009	-302.57632	923.42407	893.44604	-308.97668	799.90289	887.33545	-296.90137	663.01935	929.96924	-257.24509	678.40100	912.15314	-300.80887	620.60699	1205.80701	96.70957	1111.06970	1254.52869	59.21652	966.37073	1282.66052	113.57169	1032.38660	1239.57800	209.87262	966.74664	1086.72632	244.76414	937.21643	1002.65808	189.64136	845.68201	1074.88745	263.20673	829.55103	989.93451	253.31248	712.71991	1011.06329	217.48035	555.09601	1056.87085	174.84114	561.05310	1041.09216	212.77539	513.09894	1472.85376	-29.45018	1119.37915	1485.90613	-36.02702	1005.70123	1373.45935	-30.52067	1180.24133	733.72314	28.39508	881.87152	914.88428	-69.78490	792.74530	921.40228	82.15386	768.05273	858.09399	-126.35246	894.02753	880.46924	167.41595	843.97272	771.60291	-163.52789	796.42365	928.11462	-118.21251	634.52637	841.12390	-55.67567	355.90945	855.69543	-166.05405	367.79645	840.24396	-111.20957	256.44867	782.94897	-181.64333	274.79999	552.72827	-54.69418	109.94292	522.02185	-141.15425	130.19006	455.90158	-82.14162	128.04265	652.10852	-143.96417	36.46402	631.62408	-198.09941	37.11288	770.23273	182.78696	749.87592	787.85950	177.07361	568.62750	778.61725	24.08099	350.37955	807.94086	134.56990	336.91797	742.38257	89.34941	250.72150	658.78540	155.69531	332.74548	414.10275	46.74223	325.16742	408.83920	135.31725	359.59412	392.71930	75.13858	416.11734	335.02170	86.61597	188.00195	346.92099	159.23706	203.64668	-594.95758	265.80481	26.11861	-930.35828	-121.58752	33.90518	-519.56860	71.15993	46.61333	-1120.35547	77.38543	56.05733	
691	2.760	1233.66858	-37.51199	1102.81519	1011.99127	29.79768	1067.54895	897.89856	39.51524	979.47583	1153.76367	-115.85397	1113.25989	1202.92908	-133.17233	975.22980	1193.90698	-171.46429	1054.16296	1121.83435	-258.29041	1022.64075	976.51514	-285.33777	968.40814	857.39136	-222.43065	926.37079	928.70825	-298.83774	906.47473	921.45746	-303.01022	781.87238	925.82721	-288.81140	645.23450	967.37756	-249.70987	664.52808	953.81866	-292.37552	604.85895	1216.53931	96.57924	1112.94971	1266.78809	60.22305	968.29730	1293.93213	114.58514	1034.78284	1249.06873	211.28262	970.44623	1095.69421	245.56668	944.37091	1009.80560	191.41692	854.57629	1081.16687	265.38425	836.58698	988.73779	258.61172	724.06329	996.47107	226.40961	563.80060	1042.17883	182.91032	565.22815	1022.52563	221.96539	518.94769	1485.54114	-29.32135	1122.79773	1499.26990	-35.78640	1009.24182	1385.94482	-30.58375	1183.30579	747.11969	28.77568	880.19940	928.33942	-71.55136	793.04419	935.99927	79.68302	767.27936	870.62537	-126.98627	894.38531	894.99915	166.32205	841.96912	782.63593	-163.75031	796.57434	937.84863	-122.21033	632.20654	847.15784	-58.34420	354.44324	860.39862	-169.26224	366.32996	844.13605	-114.04074	254.74030	786.28998	-183.83440	273.87860	555.41827	-54.17210	111.49724	524.05054	-140.33200	131.95395	458.57373	-80.56548	130.78267	652.41626	-143.91272	36.43150	631.64429	-198.07063	37.22478	787.05640	181.94429	747.33875	811.74817	175.63361	567.61005	810.28912	21.89231	351.01529	841.98792	131.99994	337.91849	776.99451	87.46298	251.70555	694.34534	155.14014	333.72189	447.91119	49.86586	326.47583	444.17062	138.45456	361.20142	425.36465	78.45329	417.39743	372.27750	92.11691	188.13293	386.16504	164.31186	204.35556	-594.97839	265.80817	26.12002	-930.34760	-121.58569	33.90997	-519.56641	71.15855	46.60312	-1120.35107	77.38963	56.05467	
692	2.764	1245.67090	-37.69261	1104.40015	1023.75104	29.46379	1066.42932	911.16711	39.22495	978.10223	1164.88477	-116.19274	1113.66138	1217.23486	-132.96342	976.13184	1206.61108	-171.90842	1055.41846	1134.46594	-257.94006	1020.39838	991.92590	-281.99203	956.08655	877.03394	-217.02573	905.50385	948.97656	-294.69937	890.12555	950.97339	-296.56992	765.18073	965.77203	-280.18936	629.61224	1005.98926	-241.75159	652.70752	996.78156	-283.40994	591.45331	1227.26587	96.18436	1114.89417	1279.09521	61.20601	970.29742	1305.21033	115.43451	1037.31934	1258.81079	212.61450	974.48499	1105.20740	246.62088	951.84167	1017.37646	193.75377	863.95251	1087.96631	267.81989	844.01111	988.48755	264.17801	736.33533	982.90417	235.35155	574.59186	1028.03357	190.97363	571.67786	1004.83966	231.01749	527.26093	1498.12878	-29.31280	1126.06946	1512.52795	-35.54917	1012.63513	1398.32581	-30.81705	1186.21045	760.45245	29.32730	878.33105	941.66473	-73.22385	793.25372	950.55133	77.27471	766.46826	882.94836	-127.51869	894.59760	909.48358	165.24785	839.91254	793.44977	-163.78363	796.62292	947.29358	-126.22019	629.81714	852.97925	-61.12328	352.94852	864.83618	-172.57967	364.95770	847.81659	-117.02870	253.10118	789.40186	-186.13902	273.04269	558.06464	-53.76084	113.00605	526.02570	-139.62299	133.62456	461.20831	-79.11294	133.40945	652.72784	-143.89572	36.40729	631.64746	-198.10257	37.27184	804.02960	181.25374	744.80090	835.82611	174.26027	566.97461	842.15991	19.68320	352.30249	876.21265	129.43216	339.72549	811.90741	85.53957	253.38116	730.09412	154.59935	335.09399	481.97565	53.05435	327.44882	479.60312	141.64316	362.41449	458.03757	81.94006	418.22028	410.22519	97.38948	187.82863	425.94238	169.13023	204.63268	-594.99677	265.81201	26.11687	-930.33917	-121.58837	33.90684	-519.56531	71.15739	46.58280	-1120.34583	77.39142	56.04908	
693	2.768	1257.71960	-37.91003	1105.93530	1035.47241	28.96273	1065.21497	924.38629	38.94906	976.60693	1176.36841	-116.70660	1113.96533	1231.73486	-132.78583	976.96448	1219.76270	-172.37367	1056.52832	1147.91589	-257.64053	1018.08209	1008.62738	-278.35233	944.10370	898.55267	-211.09601	885.43872	970.67896	-290.20511	874.49384	981.89777	-289.70074	749.94971	1006.99402	-271.08139	616.27209	1045.62854	-233.41188	643.03656	1040.84814	-273.95215	580.49347	1238.01086	95.54520	1116.88904	1291.46667	62.20136	972.37280	1316.51501	116.14688	1039.99390	1268.79175	213.89624	978.86700	1115.23962	247.90340	959.64203	1025.34583	196.61571	873.87531	1095.24036	270.49066	851.85455	989.17218	269.96512	749.50464	970.52765	244.27121	587.36322	1014.66315	199.01753	580.34381	988.26794	239.92841	537.93890	1510.65344	-29.42443	1129.18591	1525.70093	-35.31740	1015.87067	1410.64258	-31.21661	1188.95166	773.75732	30.03488	876.27979	954.87817	-74.79967	793.34436	965.07111	74.93761	765.60138	895.09918	-127.95800	894.63739	923.95026	164.18742	837.80524	804.07532	-163.62595	796.55408	956.44653	-130.20360	627.33063	858.52014	-63.99052	351.40030	868.95367	-175.98083	363.65857	851.23151	-120.15471	251.51318	792.22723	-188.53200	272.26373	560.61566	-53.44930	114.43254	527.89661	-139.01891	135.16628	463.74704	-77.78112	135.86842	653.02820	-143.91032	36.39304	631.62128	-198.18904	37.25822	821.16687	180.72682	742.29199	860.03784	172.94937	566.73987	874.19934	17.45974	354.25467	910.55066	126.86928	342.36380	847.07544	83.58295	255.76036	765.97192	154.06491	336.86920	516.26666	56.26801	328.05511	515.09283	144.84894	363.21234	490.70575	85.54977	418.53964	448.84219	102.39978	187.08371	466.21460	173.66940	204.48784	-595.01196	265.81622	26.10962	-930.33344	-121.59492	33.89697	-519.56531	71.15636	46.55515	-1120.34033	77.39075	56.04185	
694	2.772	1269.84143	-38.15088	1107.42371	1047.20300	28.28548	1063.92151	937.58569	38.67197	974.99414	1188.24231	-117.40894	1114.17126	1246.46106	-132.60704	977.72974	1233.38464	-172.83833	1057.49951	1162.26733	-257.39536	1015.65186	1026.64868	-274.48587	932.51697	921.86859	-204.73726	866.36182	993.77625	-285.40176	859.68561	1014.11877	-282.45255	736.27924	1049.30115	-261.53943	605.29950	1086.10498	-224.73889	635.58282	1085.80737	-264.05035	572.05237	1248.79285	94.68923	1118.91772	1303.91479	63.24238	974.52673	1327.86401	116.75155	1042.80334	1278.99854	215.15169	983.59473	1125.76111	249.37852	967.78833	1033.69409	199.95505	884.40448	1102.94641	273.37234	860.15662	990.77325	275.92288	763.53992	959.48425	253.13199	601.98639	1002.28137	207.02873	591.13257	973.02283	248.69778	550.85089	1523.15161	-29.64696	1132.14282	1538.81201	-35.09126	1018.94379	1422.93396	-31.76622	1191.52930	787.07422	30.88275	874.06378	968.00049	-76.27766	793.28625	979.57410	72.67839	764.65991	907.11938	-128.31412	894.47894	938.43109	163.13589	835.64966	814.54865	-163.27676	796.35742	965.31348	-134.12396	624.72864	863.72369	-66.91441	349.78403	872.70813	-179.43146	362.42020	854.33691	-123.39217	249.96957	794.72107	-190.98131	271.52225	563.02667	-53.22585	115.74998	529.62018	-138.51064	136.55342	466.13916	-76.56557	138.11911	653.30328	-143.95358	36.38816	631.55719	-198.32246	37.19024	838.48431	180.37231	739.84320	884.32574	171.69672	566.91913	906.37152	15.23081	356.88422	944.93292	124.31532	345.85434	882.45062	81.59477	258.85855	801.91736	153.52710	339.05814	550.76044	59.46545	328.26758	550.60248	148.03700	363.57693	523.34387	89.23084	418.31137	488.10947	107.11681	185.90225	506.94730	177.90959	203.93794	-595.02356	265.82056	26.09943	-930.33057	-121.60436	33.88232	-519.56610	71.15522	46.52371	-1120.33533	77.38773	56.03455	
695	2.776	1282.06140	-38.39825	1108.86780	1058.98999	27.42717	1062.56506	950.79718	38.37768	973.26953	1200.52454	-118.29897	1114.28369	1261.44812	-132.38829	978.43207	1247.49719	-173.27675	1058.34827	1177.59241	-257.19116	1013.08344	1046.01025	-270.46494	921.37939	946.87323	-198.05470	848.43549	1018.21814	-280.33838	845.79236	1047.51147	-274.87988	724.24713	1092.48926	-251.61972	596.74615	1127.21802	-215.78493	630.38306	1131.43677	-253.75980	566.17236	1259.62524	93.64908	1120.96289	1316.44775	64.35887	976.76178	1339.27234	117.27833	1045.74292	1289.41833	216.39999	988.66803	1136.74084	250.99991	976.29907	1042.40820	203.71320	895.58899	1111.04468	276.43942	868.96179	993.26990	281.99799	778.40790	949.89337	261.89688	618.31573	991.08258	214.99358	603.91901	959.29181	257.32639	565.83826	1535.65723	-29.96188	1134.94031	1551.88745	-34.86771	1021.85461	1435.23547	-32.43759	1193.94604	800.44623	31.85542	871.70569	981.05707	-77.65811	793.05109	994.07910	70.50195	763.62543	919.05688	-128.59839	894.09955	952.96191	162.08946	833.44873	824.91278	-162.73691	796.02692	973.90918	-137.94846	622.00043	868.54608	-69.85565	348.09586	876.07062	-182.88914	361.23929	857.10059	-126.70579	248.47447	796.85272	-193.44930	270.80927	565.26019	-53.08022	116.94184	531.16199	-138.09079	137.77065	468.34283	-75.46381	140.13623	653.54041	-144.02359	36.39043	631.45020	-198.49570	37.07465	856.00037	180.19531	737.48712	908.63275	170.49812	567.52155	938.63397	13.00753	360.20297	979.28754	121.77577	350.21292	917.98291	79.57456	262.69345	837.86792	152.97421	341.67349	585.43939	62.60411	328.06366	586.10199	151.17094	363.49304	555.93463	92.92975	417.49435	528.01129	111.51147	184.29939	548.10986	181.83214	203.00682	-595.03162	265.82471	26.08832	-930.33063	-121.61533	33.86532	-519.56738	71.15366	46.49221	-1120.33154	77.38267	56.02870	
